<svg xmlns="http://www.w3.org/2000/svg" width="24" height="24" viewBox="0 0 24 24" fill="none">
  <path d="M22 9.48977H17.21L12.83 2.92977C12.64 2.64977 12.32 2.50977 12 2.50977C11.68 2.50977 11.36 2.64977 11.17 2.93977L6.79 9.48977H2C1.45 9.48977 1 9.93977 1 10.4898C1 10.5798 1.01 10.6698 1.04 10.7598L3.58 20.0298C3.81 20.8698 4.58 21.4898 5.5 21.4898H18.5C19.42 21.4898 20.19 20.8698 20.43 20.0298L22.97 10.7598L23 10.4898C23 9.93977 22.55 9.48977 22 9.48977ZM12 5.28977L14.8 9.48977H9.2L12 5.28977ZM18.5 19.4898L5.51 19.4998L3.31 11.4898H20.7L18.5 19.4898ZM12 13.4898C10.9 13.4898 10 14.3898 10 15.4898C10 16.5898 10.9 17.4898 12 17.4898C13.1 17.4898 14 16.5898 14 15.4898C14 14.3898 13.1 13.4898 12 13.4898Z" fill="black"/>
</svg>