<svg width="30" height="30" viewBox="0 0 30 30" fill="none" xmlns="http://www.w3.org/2000/svg">
<path d="M14.75 0.21875C6.72266 0.21875 0.21875 6.72266 0.21875 14.75C0.21875 22.7773 6.72266 29.2812 14.75 29.2812C22.7773 29.2812 29.2812 22.7773 29.2812 14.75C29.2812 6.72266 22.7773 0.21875 14.75 0.21875ZM27.4062 14.75C27.4062 21.7227 21.7227 27.4062 14.75 27.4062C7.77734 27.4062 2.09375 21.7812 2.09375 14.75C2.09375 7.83594 7.71875 2.09375 14.75 2.09375C21.6641 2.09375 27.4062 7.77734 27.4062 14.75ZM18.6758 19.9648C18.9688 20.1992 19.4375 20.082 19.6133 19.7891L20.1406 19.1445C20.375 18.793 20.2578 18.3828 19.9648 18.1484L15.8633 15.1602V6.54688C15.8633 6.19531 15.5117 5.84375 15.1602 5.84375H14.3398C13.9297 5.84375 13.6367 6.19531 13.6367 6.54688V15.9219C13.6367 16.1562 13.6953 16.332 13.8711 16.5078L18.6758 19.9648Z" fill="#18BA51"/>
</svg>
