<svg width="50" height="50" viewBox="0 0 50 50" fill="none" xmlns="http://www.w3.org/2000/svg">
<circle cx="25" cy="25" r="24" fill="white" stroke="#EEEFF2"/>
<mask id="mask0_9_1294" style="mask-type:alpha" maskUnits="userSpaceOnUse" x="13" y="13" width="24" height="24">
<rect x="13" y="13" width="24" height="24" fill="#D9D9D9"/>
</mask>
<g mask="url(#mask0_9_1294)">
<path d="M25 26L17 21V31H26V33H17C16.45 33 15.9792 32.8042 15.5875 32.4125C15.1958 32.0208 15 31.55 15 31V19C15 18.45 15.1958 17.9792 15.5875 17.5875C15.9792 17.1958 16.45 17 17 17H33C33.55 17 34.0208 17.1958 34.4125 17.5875C34.8042 17.9792 35 18.45 35 19V26H33V21L25 26ZM25 24L33 19H17L25 24ZM32 36L30.6 34.6L32.175 33H28V31H32.175L30.575 29.4L32 28L36 32L32 36ZM17 21V32V26V26.075V19V21Z" fill="#1C1B1F"/>
</g>
</svg>
