<svg width="29" height="23" viewBox="0 0 29 23" fill="none" xmlns="http://www.w3.org/2000/svg">
<path d="M25.0977 0.6875C23.9258 0.736328 18.0664 1.12695 14.4043 3.08008C14.209 3.17773 13.8672 3.17773 13.6719 3.08008C10.0098 1.12695 4.15039 0.736328 2.97852 0.6875C1.31836 0.6875 0 2.00586 0 3.61719V18.0703C0 19.6328 1.2207 20.8535 2.7832 20.9512C4.49219 21.0488 8.74023 21.3418 11.6699 22.416C11.9629 22.5137 12.207 22.5625 12.4512 22.5625H15.5762C15.8691 22.5625 16.1133 22.5137 16.4062 22.416C19.3359 21.3418 23.584 21.0488 25.293 20.9512C26.8555 20.8535 28.0762 19.6328 28.0762 18.0703V3.61719C28.125 2.00586 26.7578 0.6875 25.0977 0.6875ZM13.2812 20.2676C13.2812 20.707 12.8906 21.0488 12.5 21.0488C12.4023 21.0488 12.3535 21 12.2559 21C9.17969 19.8281 4.98047 19.4863 2.88086 19.3887C2.14844 19.3398 1.5625 18.8027 1.5625 18.0703V3.61719C1.5625 2.88477 2.19727 2.29883 2.97852 2.29883C3.90625 2.29883 8.93555 2.64062 12.3535 4.1543C12.8906 4.39844 13.2324 4.93555 13.2324 5.52148L13.2812 10.4043V20.2676ZM26.5625 18.0703C26.5625 18.8027 25.9277 19.3398 25.1953 19.3887C23.0957 19.4863 18.8965 19.8281 15.8203 21C15.7227 21 15.6738 21.0488 15.5762 21.0488C15.1855 21.0488 14.7949 20.707 14.7949 20.2676V10.4043L14.8438 5.52148C14.8438 4.93555 15.1855 4.39844 15.7227 4.1543C19.1406 2.64062 24.1699 2.29883 25.0977 2.29883C25.8789 2.29883 26.5137 2.88477 26.5137 3.61719V18.0703H26.5625Z" fill="#18BA51"/>
</svg>
