<svg width="50" height="50" viewBox="0 0 50 50" fill="none" xmlns="http://www.w3.org/2000/svg">
<circle cx="25" cy="25" r="24" fill="white" stroke="#EEEFF2"/>
<mask id="mask0_9_1314" style="mask-type:alpha" maskUnits="userSpaceOnUse" x="12" y="13" width="25" height="24">
<rect x="12.5" y="13" width="24" height="24" fill="#D9D9D9"/>
</mask>
<g mask="url(#mask0_9_1314)">
<path d="M17.5 34C16.95 34 16.4792 33.8042 16.0875 33.4125C15.6958 33.0208 15.5 32.55 15.5 32V18C15.5 17.45 15.6958 16.9792 16.0875 16.5875C16.4792 16.1958 16.95 16 17.5 16H24.5V18H17.5V32H24.5V34H17.5ZM28.5 30L27.125 28.55L29.675 26H21.5V24H29.675L27.125 21.45L28.5 20L33.5 25L28.5 30Z" fill="#1C1B1F"/>
</g>
</svg>
