<svg width="33" height="27" viewBox="0 0 33 27" fill="none" xmlns="http://www.w3.org/2000/svg">
<g id="Logo">
<g id="Vector">
<path d="M5.85906 2.5397L1.65393 10.4105C1.12916 11.3956 0.866211 12.4767 0.866211 13.5592C0.866211 14.6419 1.12916 15.7228 1.65393 16.7079L5.85906 24.5789C6.63414 26.0327 8.14992 26.9407 9.79945 26.9407H14.2661V24.711H14.2646C13.4406 24.711 12.6827 24.2577 12.2951 23.5309L8.09156 15.6584C7.74025 15.0022 7.56517 14.2815 7.56517 13.5592C7.56517 12.8369 7.74025 12.1163 8.09156 11.4602L12.2951 3.58775C12.6827 2.86077 13.4406 2.40758 14.2646 2.40758H14.2661V0.177734H9.79945C8.14992 0.177734 6.63414 1.08589 5.85906 2.5397Z" fill="black"/>
<path d="M31.3426 10.4106L27.1376 2.53976C26.3624 1.08579 24.8467 0.177792 23.1972 0.177792H18.7304V2.40747H18.732C19.5561 2.40747 20.314 2.86082 20.7014 3.58764L24.9049 11.4601C25.2564 12.1163 25.4312 12.837 25.4312 13.5593C25.4312 14.2816 25.2564 15.0022 24.9049 15.6585L20.7014 23.5307C20.314 24.2577 19.5561 24.7109 18.732 24.7109H18.7304V26.9408H23.1972C24.8467 26.9408 26.3624 26.0328 27.1376 24.5788L31.3426 16.708C31.8672 15.7229 32.1303 14.6418 32.1303 13.5593C32.1303 12.4767 31.8672 11.3957 31.3426 10.4106Z" fill="black"/>
</g>
</g>
</svg>
