<svg width="50" height="50" viewBox="0 0 50 50" fill="none" xmlns="http://www.w3.org/2000/svg">
<circle cx="25" cy="25" r="24" fill="white" stroke="#EEEFF2"/>
<mask id="mask0_9_1306" style="mask-type:alpha" maskUnits="userSpaceOnUse" x="12" y="13" width="25" height="24">
<rect x="12.5" y="13" width="24" height="24" fill="#D9D9D9"/>
</mask>
<g mask="url(#mask0_9_1306)">
<path d="M24.5 34C22.2 34 20.1958 33.2375 18.4875 31.7125C16.7792 30.1875 15.8 28.2833 15.55 26H17.6C17.8333 27.7333 18.6042 29.1667 19.9125 30.3C21.2208 31.4333 22.75 32 24.5 32C26.45 32 28.1042 31.3208 29.4625 29.9625C30.8208 28.6042 31.5 26.95 31.5 25C31.5 23.05 30.8208 21.3958 29.4625 20.0375C28.1042 18.6792 26.45 18 24.5 18C23.35 18 22.275 18.2667 21.275 18.8C20.275 19.3333 19.4333 20.0667 18.75 21H21.5V23H15.5V17H17.5V19.35C18.35 18.2833 19.3875 17.4583 20.6125 16.875C21.8375 16.2917 23.1333 16 24.5 16C25.75 16 26.9208 16.2375 28.0125 16.7125C29.1042 17.1875 30.0542 17.8292 30.8625 18.6375C31.6708 19.4458 32.3125 20.3958 32.7875 21.4875C33.2625 22.5792 33.5 23.75 33.5 25C33.5 26.25 33.2625 27.4208 32.7875 28.5125C32.3125 29.6042 31.6708 30.5542 30.8625 31.3625C30.0542 32.1708 29.1042 32.8125 28.0125 33.2875C26.9208 33.7625 25.75 34 24.5 34ZM27.3 29.2L23.5 25.4V20H25.5V24.6L28.7 27.8L27.3 29.2Z" fill="#1C1B1F"/>
</g>
</svg>
