<svg width="50" height="50" viewBox="0 0 50 50" fill="none" xmlns="http://www.w3.org/2000/svg">
<circle cx="25" cy="25" r="24" fill="white" stroke="#EEEFF2"/>
<mask id="mask0_9_1282" style="mask-type:alpha" maskUnits="userSpaceOnUse" x="13" y="13" width="24" height="24">
<rect x="13" y="13" width="24" height="24" fill="#D9D9D9"/>
</mask>
<g mask="url(#mask0_9_1282)">
<path d="M32.95 34C30.8667 34 28.8083 33.5458 26.775 32.6375C24.7417 31.7292 22.8917 30.4417 21.225 28.775C19.5583 27.1083 18.2708 25.2583 17.3625 23.225C16.4542 21.1917 16 19.1333 16 17.05C16 16.75 16.1 16.5 16.3 16.3C16.5 16.1 16.75 16 17.05 16H21.1C21.3333 16 21.5417 16.0792 21.725 16.2375C21.9083 16.3958 22.0167 16.5833 22.05 16.8L22.7 20.3C22.7333 20.5667 22.725 20.7917 22.675 20.975C22.625 21.1583 22.5333 21.3167 22.4 21.45L19.975 23.9C20.3083 24.5167 20.7042 25.1125 21.1625 25.6875C21.6208 26.2625 22.125 26.8167 22.675 27.35C23.1917 27.8667 23.7333 28.3458 24.3 28.7875C24.8667 29.2292 25.4667 29.6333 26.1 30L28.45 27.65C28.6 27.5 28.7958 27.3875 29.0375 27.3125C29.2792 27.2375 29.5167 27.2167 29.75 27.25L33.2 27.95C33.4333 28.0167 33.625 28.1375 33.775 28.3125C33.925 28.4875 34 28.6833 34 28.9V32.95C34 33.25 33.9 33.5 33.7 33.7C33.5 33.9 33.25 34 32.95 34ZM19.025 22L20.675 20.35L20.25 18H18.025C18.1083 18.6833 18.225 19.3583 18.375 20.025C18.525 20.6917 18.7417 21.35 19.025 22ZM27.975 30.95C28.625 31.2333 29.2875 31.4583 29.9625 31.625C30.6375 31.7917 31.3167 31.9 32 31.95V29.75L29.65 29.275L27.975 30.95Z" fill="#1C1B1F"/>
</g>
</svg>
