<svg xmlns="http://www.w3.org/2000/svg" width="18" height="18" viewBox="0 0 18 18" fill="none">
  <path d="M8.99978 2.54145C10.1838 2.54145 11.1526 3.5102 11.1526 4.69423C11.1526 5.87825 10.1838 6.847 8.99978 6.847C7.81575 6.847 6.847 5.87825 6.847 4.69423C6.847 3.5102 7.81575 2.54145 8.99978 2.54145ZM8.99978 12.2289C11.906 12.2289 15.2428 13.6175 15.4581 14.3817V15.4581H2.54145V14.3925C2.75673 13.6175 6.09353 12.2289 8.99978 12.2289ZM8.99978 0.388672C6.62096 0.388672 4.69423 2.31541 4.69423 4.69423C4.69423 7.07305 6.62096 8.99978 8.99978 8.99978C11.3786 8.99978 13.3053 7.07305 13.3053 4.69423C13.3053 2.31541 11.3786 0.388672 8.99978 0.388672ZM8.99978 10.0762C6.12582 10.0762 0.388672 11.5185 0.388672 14.3817V17.6109H17.6109V14.3817C17.6109 11.5185 11.8737 10.0762 8.99978 10.0762Z" fill="black"/>
</svg>