<svg width="50" height="50" viewBox="0 0 50 50" fill="none" xmlns="http://www.w3.org/2000/svg">
<circle cx="25" cy="25" r="24" fill="white" stroke="#EEEFF2"/>
<mask id="mask0_9_1270" style="mask-type:alpha" maskUnits="userSpaceOnUse" x="13" y="13" width="24" height="24">
<rect x="13" y="13" width="24" height="24" fill="#D9D9D9"/>
</mask>
<g mask="url(#mask0_9_1270)">
<path d="M25 25C23.9 25 22.9583 24.6083 22.175 23.825C21.3917 23.0417 21 22.1 21 21C21 19.9 21.3917 18.9583 22.175 18.175C22.9583 17.3917 23.9 17 25 17C26.1 17 27.0417 17.3917 27.825 18.175C28.6083 18.9583 29 19.9 29 21C29 22.1 28.6083 23.0417 27.825 23.825C27.0417 24.6083 26.1 25 25 25ZM17 33V30.2C17 29.6333 17.1458 29.1125 17.4375 28.6375C17.7292 28.1625 18.1167 27.8 18.6 27.55C19.6333 27.0333 20.6833 26.6458 21.75 26.3875C22.8167 26.1292 23.9 26 25 26C26.1 26 27.1833 26.1292 28.25 26.3875C29.3167 26.6458 30.3667 27.0333 31.4 27.55C31.8833 27.8 32.2708 28.1625 32.5625 28.6375C32.8542 29.1125 33 29.6333 33 30.2V33H17ZM19 31H31V30.2C31 30.0167 30.9542 29.85 30.8625 29.7C30.7708 29.55 30.65 29.4333 30.5 29.35C29.6 28.9 28.6917 28.5625 27.775 28.3375C26.8583 28.1125 25.9333 28 25 28C24.0667 28 23.1417 28.1125 22.225 28.3375C21.3083 28.5625 20.4 28.9 19.5 29.35C19.35 29.4333 19.2292 29.55 19.1375 29.7C19.0458 29.85 19 30.0167 19 30.2V31ZM25 23C25.55 23 26.0208 22.8042 26.4125 22.4125C26.8042 22.0208 27 21.55 27 21C27 20.45 26.8042 19.9792 26.4125 19.5875C26.0208 19.1958 25.55 19 25 19C24.45 19 23.9792 19.1958 23.5875 19.5875C23.1958 19.9792 23 20.45 23 21C23 21.55 23.1958 22.0208 23.5875 22.4125C23.9792 22.8042 24.45 23 25 23Z" fill="#1C1B1F"/>
</g>
</svg>
